<?xml version="1.0" encoding="UTF-8"?>
<svg id="acusticBox" xmlns="http://www.w3.org/2000/svg" viewBox="0 0 317.06 307.48">
  <rect id="wine" y=".22" width="317.06" height="307.48" rx="20.17" ry="20.17" style="fill: #2a0900;"/>
  <g id="acusticBox-2" data-name="acusticBox">
    <polygon points="138.22 72.13 98.25 61.89 96.49 207.43 136.13 244.2 225.58 229.82 230.19 67.95 138.22 72.13" style="fill: #80604d; stroke: #000; stroke-miterlimit: 10; stroke-width: 2px;"/>
    <path d="M98.21,60.79l79.94-1.76h0l50.41,7.67s.03,.05,0,.06l-92.88,5.38" style="fill: #80604d; stroke: #000; stroke-miterlimit: 10; stroke-width: 2px;"/>
    <line x1="138.22" y1="72.13" x2="136.13" y2="244.2" style="fill: none; stroke: #000; stroke-miterlimit: 10; stroke-width: 2px;"/>
    <ellipse cx="183.98" cy="159.16" rx="21.54" ry="26.77" style="stroke: #000; stroke-miterlimit: 10; stroke-width: 2px;"/>
    <circle cx="143.56" cy="80.77" r="1.27" style="stroke: #000; stroke-miterlimit: 10; stroke-width: 2px;"/>
    <circle cx="143.56" cy="80.77" r="1.27" style="stroke: #000; stroke-miterlimit: 10; stroke-width: 2px;"/>
    <circle cx="143.56" cy="92.28" r="1.27" style="stroke: #000; stroke-miterlimit: 10; stroke-width: 2px;"/>
    <circle cx="143.56" cy="102.96" r="1.27" style="stroke: #000; stroke-miterlimit: 10; stroke-width: 2px;"/>
    <circle cx="143.56" cy="114.6" r="1.27" style="stroke: #000; stroke-miterlimit: 10; stroke-width: 2px;"/>
    <circle cx="143.56" cy="126.1" r="1.27" style="stroke: #000; stroke-miterlimit: 10; stroke-width: 2px;"/>
    <circle cx="143.56" cy="136.78" r="1.27" style="stroke: #000; stroke-miterlimit: 10; stroke-width: 2px;"/>
    <circle cx="143.56" cy="147.95" r="1.27" style="stroke: #000; stroke-miterlimit: 10; stroke-width: 2px;"/>
    <circle cx="143.56" cy="159.46" r="1.27" style="stroke: #000; stroke-miterlimit: 10; stroke-width: 2px;"/>
    <circle cx="143.56" cy="170.14" r="1.27" style="stroke: #000; stroke-miterlimit: 10; stroke-width: 2px;"/>
    <circle cx="143.56" cy="180.93" r="1.27" style="stroke: #000; stroke-miterlimit: 10; stroke-width: 2px;"/>
    <circle cx="143.56" cy="192.43" r="1.27" style="stroke: #000; stroke-miterlimit: 10; stroke-width: 2px;"/>
    <circle cx="143.56" cy="203.11" r="1.27" style="stroke: #000; stroke-miterlimit: 10; stroke-width: 2px;"/>
    <circle cx="143.56" cy="213.79" r="1.27" style="stroke: #000; stroke-miterlimit: 10; stroke-width: 2px;"/>
    <circle cx="143.56" cy="225.29" r="1.27" style="stroke: #000; stroke-miterlimit: 10; stroke-width: 2px;"/>
    <circle cx="143.56" cy="235.97" r="1.27" style="stroke: #000; stroke-miterlimit: 10; stroke-width: 2px;"/>
    <circle cx="223.8" cy="72.95" r="1.27" style="stroke: #000; stroke-miterlimit: 10; stroke-width: 2px;"/>
    <circle cx="223.37" cy="83.62" r="1.27" style="stroke: #000; stroke-miterlimit: 10; stroke-width: 2px;"/>
    <circle cx="222.89" cy="95.26" r="1.27" style="stroke: #000; stroke-miterlimit: 10; stroke-width: 2px;"/>
    <circle cx="222.43" cy="106.75" r="1.27" style="stroke: #000; stroke-miterlimit: 10; stroke-width: 2px;"/>
    <circle cx="221.99" cy="117.42" r="1.27" style="stroke: #000; stroke-miterlimit: 10; stroke-width: 2px;"/>
    <circle cx="221.54" cy="128.59" r="1.27" style="stroke: #000; stroke-miterlimit: 10; stroke-width: 2px;"/>
    <circle cx="221.07" cy="140.08" r="1.27" style="stroke: #000; stroke-miterlimit: 10; stroke-width: 2px;"/>
    <circle cx="220.64" cy="150.75" r="1.27" style="stroke: #000; stroke-miterlimit: 10; stroke-width: 2px;"/>
    <circle cx="220.2" cy="161.53" r="1.27" style="stroke: #000; stroke-miterlimit: 10; stroke-width: 2px;"/>
    <circle cx="219.73" cy="173.03" r="1.27" style="stroke: #000; stroke-miterlimit: 10; stroke-width: 2px;"/>
    <circle cx="219.3" cy="183.7" r="1.27" style="stroke: #000; stroke-miterlimit: 10; stroke-width: 2px;"/>
    <circle cx="218.87" cy="194.37" r="1.27" style="stroke: #000; stroke-miterlimit: 10; stroke-width: 2px;"/>
    <circle cx="218.4" cy="205.86" r="1.27" style="stroke: #000; stroke-miterlimit: 10; stroke-width: 2px;"/>
    <circle cx="217.97" cy="216.53" r="1.27" style="stroke: #000; stroke-miterlimit: 10; stroke-width: 2px;"/>
    <circle cx="218.17" cy="226.16" r="1.27" style="stroke: #000; stroke-miterlimit: 10; stroke-width: 2px;"/>
  </g>
</svg>