<?xml version="1.0" encoding="UTF-8"?>
<svg id="armGuitar" xmlns="http://www.w3.org/2000/svg" viewBox="0 0 317.06 307.48">
  <rect id="wine" y=".22" width="317.06" height="307.48" rx="20.17" ry="20.17" style="fill: #a700aa;"/>
  <rect id="black" x="130.21" y="225.5" width="40.48" height="16.06" style="stroke: #000; stroke-miterlimit: 10;"/>
  <g id="guittar">
    <circle cx="169.84" cy="63.83" r="6.77" style="stroke: #000; stroke-miterlimit: 10;"/>
    <circle cx="163.07" cy="86.7" r="6.77" style="stroke: #000; stroke-miterlimit: 10;"/>
    <circle cx="157.16" cy="108.77" r="6.77" style="stroke: #000; stroke-miterlimit: 10;"/>
    <circle cx="150.39" cy="130.83" r="6.77" style="stroke: #000; stroke-miterlimit: 10;"/>
    <circle cx="143.62" cy="153.79" r="6.77" style="stroke: #000; stroke-miterlimit: 10;"/>
    <circle cx="136.85" cy="175.56" r="6.77" style="stroke: #000; stroke-miterlimit: 10;"/>
    <path d="M130.55,221.33h40.24c.24,0,.44-.2,.44-.44v-16.47c0-.05,0-.09,0-.14-.09-.91-.96-11.24,6.64-17.32,4.76-3.8,12.96-8.37,18.81-11.42,8.54-4.47,12.52-14.79,8.64-23.62-.16-.35-.32-.71-.5-1.07-5.43-10.74-18.91-43.35-20.21-46.48-.07-.16-.1-.33-.11-.51l-.36-9.34c-.09-2.38,1.04-4.65,3.02-5.97,7.42-4.92,24.26-19.2,11.22-40.83-3.23-5.36-8.7-9.03-14.89-9.95-.11-.02-.23-.03-.34-.05-8.42-1.17-16.79,2.44-21.98,9.18l-3.43,4.45c-.35,.46-.94,.68-1.51,.56l-.85-.18c-.79-.16-1.56,.31-1.77,1.09l-1.35,5.04c-.15,.56,.18,1.15,.74,1.31l.25,.07c.56,.16,.89,.74,.74,1.31l-3.21,12.3c-.21,.79-1.01,1.28-1.81,1.09l-.53-.12c-.82-.19-1.64,.33-1.82,1.15l-1.28,5.77c-.13,.6,.26,1.19,.86,1.29h0c.62,.11,1.01,.72,.86,1.33l-3.15,12.14c-.16,.64-.72,1.09-1.38,1.13h-.15c-.61,.04-1.14,.44-1.34,1.02l-1.6,4.53c-.26,.73,.08,1.54,.78,1.87l.09,.04c.69,.33,1.03,1.11,.79,1.83l-3.81,11.85c-.24,.76-1.04,1.2-1.81,1.01l-.82-.2c-.83-.21-1.67,.32-1.85,1.16l-1.03,4.88c-.14,.67,.19,1.36,.8,1.67l.8,.4c.63,.32,.96,1.02,.79,1.71l-3.05,12.64c-.21,.86-1.1,1.36-1.93,1.09l-.25-.08c-.82-.26-1.7,.22-1.92,1.05l-1.22,4.54c-.21,.77,.21,1.56,.96,1.82h.02c.74,.27,1.16,1.05,.97,1.81l-2.82,11.07c-.22,.88-1.16,1.37-2.01,1.04l-.32-.12c-.83-.32-1.75,.14-2,.99l-1.42,4.94c-.21,.74,.17,1.53,.88,1.82l.5,.2c.67,.28,1.06,.99,.91,1.7l-2.66,13.05s-.01,.07-.03,.1c-.19,.67-2.35,8.53,1.21,10.31s11.68,6.03,10.13,24.48c-.02,.25,.18,.48,.43,.48Z" style="stroke: #000; stroke-miterlimit: 10;"/>
    <ellipse cx="147.31" cy="52.67" rx="9.96" ry="7.32" transform="translate(59.73 182.3) rotate(-75.63)"/>
    <ellipse cx="139.8" cy="75.25" rx="9.96" ry="7.32" transform="translate(32.2 192) rotate(-75.63)"/>
    <ellipse cx="134.02" cy="97.83" rx="9.96" ry="7.32" transform="translate(5.98 203.37) rotate(-75.63)"/>
    <ellipse cx="126.3" cy="120.41" rx="9.96" ry="7.32" transform="translate(-21.7 212.86) rotate(-75.63)"/>
    <ellipse cx="120.51" cy="142.99" rx="9.96" ry="7.32" transform="translate(-47.92 224.23) rotate(-75.63)"/>
    <ellipse cx="114.22" cy="164.98" rx="9.96" ry="7.32" transform="translate(-73.96 234.67) rotate(-75.63)"/>
  </g>
</svg>