<?xml version="1.0" encoding="UTF-8"?>
<svg id="bandolim" xmlns="http://www.w3.org/2000/svg" viewBox="0 0 317.06 307.48">
  <rect id="lightGreen002" width="317.06" height="307.48" rx="20.17" ry="20.17" style="fill: #15bc39;"/>
  <g>
    <g id="afim">
      <path d="M228.35,118.72l-2.66-2.31c-.68-.59-.73-1.6-.12-2.25l1.8-1.93c.61-.65,1.66-.71,2.34-.12l2.66,2.31c.68,.59,.73,1.6,.12,2.25l-1.8,1.93c-.61,.65-1.66,.71-2.34,.12Z"/>
      <path d="M243.97,104.52l-2.66-2.31c-.68-.59-.73-1.6-.12-2.25l1.8-1.93c.61-.65,1.66-.71,2.34-.12l2.66,2.31c.68,.59,.73,1.6,.12,2.25l-1.8,1.93c-.61,.65-1.66,.71-2.34,.12Z"/>
      <path d="M257.97,91.06l-2.66-2.31c-.68-.59-.73-1.6-.12-2.25l1.8-1.93c.61-.65,1.66-.71,2.34-.12l2.66,2.31c.68,.59,.73,1.6,.12,2.25l-1.8,1.93c-.61,.65-1.66,.71-2.34,.12Z"/>
    </g>
    <g id="afinar002">
      <path d="M196.75,85.97l-2.66-2.31c-.68-.59-.73-1.6-.12-2.25l1.8-1.93c.61-.65,1.66-.71,2.34-.12l2.66,2.31c.68,.59,.73,1.6,.12,2.25l-1.8,1.93c-.61,.65-1.66,.71-2.34,.12Z"/>
      <path d="M212.38,71.77l-2.66-2.31c-.68-.59-.73-1.6-.12-2.25l1.8-1.93c.61-.65,1.66-.71,2.34-.12l2.66,2.31c.68,.59,.73,1.6,.12,2.25l-1.8,1.93c-.61,.65-1.66,.71-2.34,.12Z"/>
      <path d="M226.37,58.31l-2.66-2.31c-.68-.59-.73-1.6-.12-2.25l1.8-1.93c.61-.65,1.66-.71,2.34-.12l2.66,2.31c.68,.59,.73,1.6,.12,2.25l-1.8,1.93c-.61,.65-1.66,.71-2.34,.12Z"/>
    </g>
    <polygon id="rectbiggg" points="218 111.65 155.03 172.22 138.33 156.16 201.3 95.59 218 111.65" style="fill: #c49270;"/>
    <ellipse id="circleye" cx="107.84" cy="200.09" rx="55.85" ry="53.72" style="fill: #f7b239;"/>
    <ellipse id="circlesblack" cx="116.61" cy="188.9" rx="21.97" ry="21.13" style="fill: #4d4d4d;"/>
    <line x1="71.77" y1="201.04" x2="105.08" y2="232.09" style="fill: none; stroke: #000; stroke-miterlimit: 10; stroke-width: 4px;"/>
    <polygon id="tria" points="266.58 77.31 223.43 118.82 192.8 89.36 235.96 47.85 266.58 77.31" style="fill: #f7b239;"/>
    <line x1="247.34" y1="65.92" x2="214.54" y2="97.46" style="fill: none; stroke: #000; stroke-miterlimit: 10; stroke-width: 4px;"/>
  </g>
</svg>