<?xml version="1.0" encoding="UTF-8"?>
<svg id="rattle" xmlns="http://www.w3.org/2000/svg" viewBox="0 0 317.06 307.48">
  <rect id="green" width="317.06" height="307.48" rx="12" ry="12" style="fill: #ffcbb4;"/>
  <g id="instrument">
    <path d="M164.14,159.13l-55.61,59.46-18.83,11.06s-6.61,5.78-.83,11.72,9.41,9.25,9.41,9.25c0,0,6.28,3.8,10.07-1.82s9.08-15.69,9.08-15.69l16.51-16.35,45.37-42.44" style="fill: #cbb292;"/>
    <path d="M253.48,85.02c18.78,18.78,15.47,52.53-7.38,75.39s-56.61,26.16-75.39,7.38c-15.98-15.98-15.97-42.82-1.51-64.54,.2-.29,.39-.59,.6-.88,2.39-3.48,5.16-6.83,8.3-9.96,22.86-22.86,56.61-26.16,75.39-7.38Z" style="fill: #d75a4a;"/>
    <path d="M135.86,167.79c-18.78,18.78-52.53,15.47-75.39-7.38s-26.16-56.61-7.38-75.39,52.53-15.47,75.39,7.38c2.35,2.35,4.49,4.81,6.42,7.36,.95,1.26,1.71,2.36,2.7,3.83,14.5,21.48,14.16,48.3-1.74,64.2Z" style="fill: #4fba6f;"/>
    <path d="M142.43,159.1l42.44,45.37,16.35,16.51s10.07,5.28,15.69,9.08c5.61,3.8,1.82,10.07,1.82,10.07,0,0-3.3,3.63-9.25,9.41-5.94,5.78-11.72-.83-11.72-.83l-11.06-18.83-59.46-55.61" style="fill: #cbb292;"/>
    <path d="M193.63,96.01s8.59-3.3,6.11,5.61c-2.48,8.92-5.78,20.64-5.78,20.64l20.31-4.79s10.07-4.46,7.43,5.94c-2.64,10.4-5.45,21.14-5.45,21.14l19.98-5.78s9.58-4.95,5.78,6.94c-3.8,11.89-7.75,24.38-7.75,24.38l-7.24,4.11s-3.18-1.9-.86-7.52c2.31-5.61,5.61-17.17,5.61-17.17l-18.33,4.62s-10.51,3.47-7.32-6.44c3.19-9.91,5.53-20.86,5.53-20.86l-20.83,5.33s-9.41,2.31-6.77-6.77c2.64-9.08,5.78-19.65,5.78-19.65l-20.48,7.6s-4.42,1.61-4.59-1.27c-.03-.46,1.01-5.04,4.77-7.34,.66-.4,1.41-.8,2.3-1.13,8.7-3.24,21.8-7.6,21.8-7.6Z" style="fill: #f0c419;"/>
    <path d="M128.67,92.4s-6.59,49.91-66.33,69.56l4.38,4.01,4.38,3.14s56.08-20.17,67.82-63.59h0l-3.52-5.34-1.09-1.34-2.8-3.43-2.84-3.01Z" style="fill: #f0c419;"/>
  </g>
</svg>