<?xml version="1.0" encoding="UTF-8"?>
<svg id="headPhone" xmlns="http://www.w3.org/2000/svg" viewBox="0 0 317.06 307.48">
  <rect id="superGreen" x="0" width="317.06" height="307.48" rx="20.17" ry="20.17" style="fill: #15ff43;"/>
  <rect id="left" x="63.41" y="146.88" width="52.41" height="110.53" rx="23.43" ry="23.43" style="stroke: #000; stroke-miterlimit: 10;"/>
  <rect id="right" x="185.29" y="145.51" width="52.41" height="110.53" rx="23.43" ry="23.43" style="stroke: #000; stroke-miterlimit: 10;"/>
  <path id="earsHolder" d="M51.66,204.35l.9-35.12c.12-4.73,1.95-25.65,2.68-30.33,3.35-21.69,29.36-75.71,94.45-77.67,59.45-1.79,84.23,45.8,93.13,70.79,2.88,8.08,4.3,16.61,4.3,25.19v45.4c0,1.55,.51,3.06,1.48,4.27,1.81,2.27,5.13,4.76,9.2,.13,1.08-1.23,1.65-2.84,1.65-4.48v-31.49c0-2.03,.12-16.97-.08-18.99-1.79-17.5-16.23-90.41-96.1-102.73-10.22-1.58-20.48-.5-30.78,.47-26.51,2.52-89.42,33.23-93.18,100.11-.44,7.84,.01,53.14,.01,53.14-.05,2.83,1.38,5.56,3.88,6.88,1.64,.87,3.64,1.18,5.71-.26,1.73-1.2,2.69-3.23,2.74-5.33Z" style="stroke: #000; stroke-miterlimit: 10; stroke-width: 2px;"/>
</svg>