<?xml version="1.0" encoding="utf-8"?>
<!-- Generator: Adobe Illustrator 26.2.0, SVG Export Plug-In . SVG Version: 6.00 Build 0)  -->
<svg version="1.1" id="Layer_1" xmlns="http://www.w3.org/2000/svg" xmlns:xlink="http://www.w3.org/1999/xlink" x="0px" y="0px"
	 viewBox="0 0 77.3 78" style="enable-background:new 0 0 77.3 78;" xml:space="preserve">
<style type="text/css">
	.st0{fill:#050505;}
	.st1{fill:#F2F2EB;}
	.st2{fill:#0C0A01;}
	.st3{fill:#F4F4EF;}
	.st4{fill:#070600;}
</style>
<g>
	<path class="st0" d="M56.3,78H21C9.5,78,0,68.6,0,57V21C0,9.5,9.5,0,21,0h35.3c11.6,0,21,9.5,21,21v36C77.3,68.5,67.8,78,56.3,78z"
		/>
	<path class="st1" d="M56.8,70.6H20.4c-7.4,0-13.5-6.1-13.5-13.5V20.8c0-7.4,6.1-13.5,13.5-13.5h36.4c7.4,0,13.5,6.1,13.5,13.5v36.4
		C70.3,64.6,64.2,70.6,56.8,70.6z"/>
	<circle class="st2" cx="39.3" cy="38.2" r="20.3"/>
	<circle class="st3" cx="39.3" cy="38.2" r="13.2"/>
	<circle class="st4" cx="60.3" cy="17.9" r="4.6"/>
</g>
</svg>
