<?xml version="1.0" encoding="UTF-8"?>
<svg id="microfone" xmlns="http://www.w3.org/2000/svg" viewBox="0 0 317.06 307.48">
  <rect id="lightGreen" width="317.06" height="307.48" rx="20.05" ry="20.05" style="fill: #e3ff6a;"/>
  <g id="microfone-2" data-name="microfone">
    <rect id="bigRec02" x="150.07" y="209.68" width="21.64" height="53.51" transform="translate(397.32 75.55) rotate(90)" style="fill: #736658;"/>
    <rect id="lRec" x="155.9" y="216.78" width="8.83" height="8.83" transform="translate(320.63 442.4) rotate(180)" style="fill: #736658;"/>
    <path d="M199.72,167.71c-4.6,23.75-20.39,41.26-39.16,41.26s-34.55-17.51-39.16-41.26h-8.7c2.81,27.63,23.34,49.07,48.25,49.07s45.43-21.45,48.25-49.07h-9.48Z" style="fill: #736658;"/>
    <g>
      <rect id="bigRec" x="147.75" y="95.13" width="23.83" height="58.68" style="fill: #594b42;"/>
      <rect id="smallRec03" x="177.11" y="101.39" width="10.29" height="21.35" transform="translate(294.31 -70.18) rotate(90)" style="fill: #594b42;"/>
      <rect id="smallRec02" x="177.11" y="124.47" width="10.29" height="21.35" transform="translate(317.4 -47.1) rotate(90)" style="fill: #594b42;"/>
      <rect id="smallRec01" x="131.93" y="101.39" width="10.29" height="21.35" transform="translate(249.14 -25.01) rotate(90)" style="fill: #594b42;"/>
      <rect id="bigRect02" x="131.93" y="124.47" width="10.29" height="21.35" transform="translate(272.22 -1.93) rotate(90)" style="fill: #594b42;"/>
      <path d="M148.42,152.14h-15.44c-2.34,0-4.24,1.9-4.24,4.24v5.38c0,13.44,5.82,26.39,16.34,34.76s24.17,11.49,38.93-8.12c4.53-6.02,6.87-13.4,6.87-20.94v-10.51c0-2.36-1.92-4.26-4.27-4.24l-13.92,.1" style="fill: #594b42;"/>
      <path d="M148.66,95.73h-17.32c-1.49,0-2.7-1.21-2.7-2.7v-2.28c0-4.98,2.21-9.44,4.54-13.85,6.68-12.63,29.89-32.66,52.25-1.04,3.54,5.01,5.38,11.03,5.38,17.16h0c0,1.49-1.21,2.7-2.7,2.7h-15.5" style="fill: #594b42;"/>
    </g>
  </g>
</svg>