<?xml version="1.0" encoding="UTF-8"?>
<svg id="pandeiro" xmlns="http://www.w3.org/2000/svg" viewBox="0 0 317.06 307.48">
  <rect id="orange" width="317.06" height="307.48" rx="20.17" ry="20.17" style="fill: #ffa635;"/>
  <path id="grey" d="M133.53,63.24c0,9.39-7.61,17-17,17s-17-7.61-17-17,7.61-17,17-17,17,7.61,17,17Zm66.5-17c-9.39,0-17,7.61-17,17s7.61,17,17,17,17-7.61,17-17-7.61-17-17-17Zm46.5,50.5c-9.39,0-17,7.61-17,17s7.61,17,17,17,17-7.61,17-17-7.61-17-17-17Zm-2,77.5c-9.39,0-17,7.61-17,17s7.61,17,17,17,17-7.61,17-17-7.61-17-17-17Zm-44.5,44.5c-9.39,0-17,7.61-17,17s7.61,17,17,17,17-7.61,17-17-7.61-17-17-17Zm-83.5-5c-11.32,0-20.5,9.18-20.5,20.5s9.18,20.5,20.5,20.5,20.5-9.18,20.5-20.5-9.18-20.5-20.5-20.5Zm-44.5-43c-9.39,0-17,7.61-17,17s7.61,17,17,17,17-7.61,17-17-7.61-17-17-17Zm-.5-74c-9.39,0-17,7.61-17,17s7.61,17,17,17,17-7.61,17-17-7.61-17-17-17Z" style="fill: gray; stroke: gray; stroke-miterlimit: 10; stroke-width: 10px;"/>
  <circle id="blackElipse" cx="159.03" cy="149.31" r="95.43" style="fill: none; stroke: #000; stroke-miterlimit: 10; stroke-width: 10px;"/>
</svg>