<?xml version="1.0" encoding="UTF-8"?>
<svg id="tambor" xmlns="http://www.w3.org/2000/svg" viewBox="0 0 317.06 307.48">
  <rect id="yellow" width="317.06" height="307.48" rx="20.05" ry="20.05" style="fill: #f5ffb4;"/>
  <g id="tambor-2" data-name="tambor">
    <path id="brown" d="M90.99,76.67s-32.37,74.26,1.98,176.64l141.04,1.77s32.71-127.82,0-178.41H90.99Z" style="fill: #7a2e11;"/>
    <rect id="bottomBege" x="72.39" y="253.08" width="178.33" height="24.23" rx="11.7" ry="11.7" style="fill: #ccae8c;"/>
    <rect id="topBege" x="72.01" y="54.06" width="178.33" height="22.61" rx="11.31" ry="11.31" style="fill: #ccae8c;"/>
    <polyline id="zigZag" points="79.25 193.02 100.78 126.49 110.13 126.49 133.15 197.83 158.83 126.49 168.51 126.49 190.86 197.83 213.55 126.49 223.22 126.49 243.91 203.11 241.24 220.29 217.89 138.71 196.2 208.4 184.86 209.06 162 135.74 137.82 208.07 127.47 208.07 106.79 136.73 81.77 209.63" style="stroke: #000; stroke-miterlimit: 10;"/>
    <circle id="colorfulElipse5" cx="105.64" cy="115.41" r="11.72" style="fill: #df000c;"/>
    <circle id="colorfulElipse014" cx="162.5" cy="115.41" r="11.72" style="fill: #00350d;"/>
    <circle id="colorfulElipse013" cx="216.66" cy="115.41" r="11.72" style="fill: #acb400;"/>
    <circle id="colorfulElipse02" cx="132.77" cy="218.47" r="11.72"/>
    <circle id="colorfulElipse01" cx="189.58" cy="218.47" r="11.72" style="fill: #00350d;"/>
    <circle id="whiteElipse05" cx="132.81" cy="218.51" r="5.59" style="fill: #fff;"/>
    <circle id="whiteElipse04" cx="105.64" cy="115.41" r="5.59" style="fill: #fff;"/>
    <circle id="whiteElipse03" cx="162.86" cy="115.41" r="5.59" style="fill: #fff;"/>
    <circle id="whiteElipse02" cx="216.66" cy="115.41" r="5.59" style="fill: #fff;"/>
    <circle id="whiteElipse01" cx="189.58" cy="218.47" r="5.59" style="fill: #fff;"/>
  </g>
</svg>