<?xml version="1.0" encoding="utf-8"?>
<!-- Generator: Adobe Illustrator 26.2.0, SVG Export Plug-In . SVG Version: 6.00 Build 0)  -->
<svg version="1.1" id="Layer_1" xmlns="http://www.w3.org/2000/svg" xmlns:xlink="http://www.w3.org/1999/xlink" x="0px" y="0px"
	 viewBox="0 0 48.7 80.7" style="enable-background:new 0 0 48.7 80.7;" xml:space="preserve">
<style type="text/css">
	.st0{fill:#0A0801;}
</style>
<g>
	<path class="st0" d="M29.9,0.4V20h15.2v15.8H30.5L30.6,58c0,0-0.9,8.6,13.7,4.1L48.1,75c0,0-12.7,10.4-29.4,1.7
		c-3.1-1.6-5.6-4.1-7.1-7.2c-1.1-2.3-2.1-5.5-2.2-9.7c-0.4-11,0-23.9,0-23.9H0.5V21.6c0,0,2.6-0.7,6.3-3c1.2-0.8,2.3-1.7,3.2-2.8
		l0,0c1.9-2.3,3.2-5,4-7.8l1-3.7c0.2-0.6,0.3-1.2,0.4-1.7l0.4-2.1h14.1V0.4z"/>
</g>
</svg>
